<svg width="114" height="14" viewBox="0 0 114 14" fill="none" xmlns="http://www.w3.org/2000/svg">
<path fill-rule="evenodd" clip-rule="evenodd" d="M56.16 12.91H57.47V7.39H62.06V6.08H56.16V12.91ZM64.69 2.39999V1.09H56.16V2.44L64.69 2.39999ZM75.27 2.39999C75.85 2.39999 76.34 2.61 76.76 3.02C77.17 3.43 77.38 3.93 77.38 4.5C77.38 5.09 77.17 5.58001 76.76 5.99001C76.35 6.40001 75.85 6.61 75.27 6.61H70.81V2.39H75.27V2.39999ZM75.34 7.91C76.29 7.87 77.09 7.52 77.72 6.87C78.37 6.22 78.69 5.43 78.69 4.5C78.69 3.56 78.35 2.76 77.68 2.09C77.01 1.42 76.21 1.08 75.27 1.08H69.49V12.91H70.8V7.92H73.15L78.14 12.91H80L75.02 7.92L75.34 7.91ZM90.7 3.81L95.15 12.91H96.62L90.84 1.08H90.56L84.79 12.91H86.25L90.7 3.81ZM107.32 6.08V7.39H111.87C111.75 8.59 111.26 9.59999 110.4 10.4C109.55 11.2 108.52 11.6 107.32 11.6C106.06 11.6 104.97 11.15 104.07 10.25C103.17 9.35 102.72 8.26 102.72 7C102.72 5.73 103.17 4.65001 104.07 3.74001C104.97 2.83001 106.05 2.39 107.32 2.39C107.63 2.39 107.94 2.42 108.23 2.48C109.13 2.66 109.89 3.08 110.53 3.7H112.23C111 1.95 109.36 1.08 107.32 1.08C105.69 1.08 104.3 1.66 103.14 2.81C101.99 3.97 101.41 5.36999 101.41 7.00999C101.41 8.63999 101.99 10.03 103.14 11.19C104.3 12.34 105.69 12.91 107.32 12.91C108.95 12.91 110.34 12.33 111.49 11.19C112.65 10.03 113.23 8.63999 113.23 7.00999C113.23 6.68999 113.2 6.38 113.13 6.08H107.32V6.08Z" fill="#B3B3B3"/>
<path fill-rule="evenodd" clip-rule="evenodd" d="M25.24 11.6V12.91H29.83C31.46 12.91 32.86 12.33 34.01 11.18C35.16 10.02 35.74 8.63 35.74 7C35.74 5.37 35.17 3.99 34.04 2.86C32.91 1.73 31.51 1.14001 29.83 1.10001V1.08H25.23V6.45H26.54V2.39999H29.82V2.41C31.09 2.41 32.17 2.85999 33.07 3.75999C33.97 4.65999 34.43 5.73999 34.43 7.00999C34.43 8.27999 33.99 9.35 33.11 10.23C32.22 11.11 31.13 11.57 29.83 11.6H25.24ZM40.55 12.91H49.07V11.6H42.05V11.61H40.54V12.91H40.55ZM41.86 2.41H42.27H49.09V1.10001H40.57V2.41H41.86ZM42.94 7.41V7.39999H48.18V6.09H43.4V6.10001H41.45V7.42H42.94V7.41Z" fill="#47E975"/>
<path fill-rule="evenodd" clip-rule="evenodd" d="M8.39 0.399994L10.3 3.7L12.21 7L10.3 10.3L8.39 13.6H4.58H0.769997L2.68 10.3L4.59 7L6.5 3.7L8.39 0.399994ZM12.2 7H8.39H4.58L6.49 10.3L8.4 13.6H12.21H16.02L14.11 10.3L12.2 7ZM12.2 8.62L10.94 10.79L9.69 12.96H12.2H14.71L13.46 10.79L12.2 8.62ZM4.58 8.62L3.32 10.79L2.07 12.96H4.58H7.09L5.84 10.79L4.58 8.62ZM8.39 1.95L7.13 4.12L5.88 6.28999H8.39H10.9L9.65 4.12L8.39 1.95Z" fill="#47E975"/>
</svg>
